<svg width="20" height="20" viewBox="0 0 20 20" fill="none" xmlns="http://www.w3.org/2000/svg">
<path d="M10.1902 1.25C10.2587 1.25 10.3268 1.25304 10.3934 1.25875C15.043 1.46418 18.75 5.29897 18.75 10C18.75 14.7007 15.043 18.5358 10.3934 18.7412C10.3258 18.7471 10.258 18.75 10.1902 18.75L10.1267 18.7492L10 18.75C5.16734 18.75 1.25 14.8327 1.25 10C1.25 5.16734 5.16734 1.25 10 1.25L10.1293 1.25114L10.1902 1.25ZM12.2704 10.7609H8.10962L8.11609 10.9549L8.12978 11.2649L8.13815 11.4186L8.15755 11.7218L8.18038 12.0205L8.20701 12.3134L8.23744 12.6014L8.2538 12.7433L8.27092 12.8833L8.30783 13.1595L8.34777 13.4289L8.39076 13.6914L8.43717 13.9474L8.48625 14.1958L8.53837 14.4366L8.565 14.5546L8.59315 14.6698L8.65022 14.8947L8.71071 15.1111L8.77348 15.3189L8.82179 15.4687L8.87201 15.6133L8.94049 15.7978C9.27565 16.6618 9.68842 17.1868 10.1362 17.226L10.1537 17.2267L10.2602 17.2237C10.6833 17.1761 11.0743 16.6941 11.3981 15.9028L11.4399 15.7978L11.5084 15.6133L11.5586 15.4687L11.607 15.3189L11.6697 15.1111L11.7298 14.8947L11.7873 14.6698L11.8151 14.5542L11.8421 14.4366L11.8942 14.1958L11.9436 13.9474L11.9893 13.6917L12.0327 13.4289L12.0821 13.091L12.1266 12.7433L12.143 12.6014L12.1734 12.3138L12.2001 12.0205L12.2229 11.7218L12.2423 11.4186L12.2507 11.2649L12.2643 10.9549L12.2704 10.7609V10.7609ZM6.58522 10.7609H2.8113C3.11071 13.6217 5.0787 15.9858 7.72424 16.863C7.48951 16.3856 7.29245 15.8298 7.13114 15.2101L7.07902 15.0008L7.02081 14.749L6.99304 14.6208L6.96641 14.491L6.91543 14.2266L6.89109 14.0923L6.84543 13.8196L6.80359 13.5411L6.78456 13.3999L6.74804 13.1135L6.73092 12.9682L6.69973 12.6745L6.67234 12.3754L6.64837 12.0718L6.63734 11.9185L6.61451 11.5305L6.59701 11.136L6.5856 10.7609H6.58522ZM17.1887 10.7609H13.7948L13.7804 11.2151L13.7617 11.6085L13.7526 11.7645L13.7321 12.0718L13.7081 12.3754L13.6807 12.6745L13.6655 12.8221L13.6236 13.1858L13.5765 13.5411L13.5346 13.8196L13.5126 13.9565L13.465 14.2266L13.4403 14.3598L13.3874 14.6208L13.3596 14.749L13.3014 15.0008C13.1492 15.6312 12.9613 16.1996 12.7368 16.6922C15.1477 15.7054 16.9072 13.4528 17.1887 10.7612V10.7609ZM7.72462 3.13696L7.66908 3.15598C5.05054 4.04734 3.10842 6.39842 2.81092 9.23913H6.58522L6.60005 8.78489L6.6187 8.39152L6.62783 8.23554L6.64837 7.92815L6.67234 7.62456L6.69973 7.32554L6.71495 7.17793L6.75679 6.81424L6.80397 6.45891L6.84581 6.18043L6.86788 6.04348L6.91543 5.77337L6.94016 5.64022L6.99304 5.37924L7.02081 5.25103L7.07902 4.99918C7.24908 4.29462 7.46326 3.66766 7.72462 3.13734V3.13696ZM10.1556 2.77326L10.1366 2.77402C9.70668 2.81168 9.30875 3.29712 8.98119 4.10022L8.94049 4.20217L8.87201 4.38668L8.82179 4.53125L8.77348 4.68114L8.71071 4.88886L8.6506 5.10533L8.59315 5.33016L8.56538 5.44581L8.53837 5.56337L8.48625 5.80418L8.43679 6.05261L8.39114 6.30826L8.34777 6.57114L8.29831 6.90897L8.2538 7.25668L8.23744 7.39859L8.20701 7.6862L8.18038 7.97951L8.15755 8.27815L8.13815 8.58136L8.12978 8.73505L8.11609 9.04511L8.10962 9.23913H12.2704L12.2643 9.04511L12.2507 8.73505L12.2423 8.58136L12.2229 8.27815L12.2001 7.97951L12.1734 7.68658L12.143 7.39859L12.1266 7.25668L12.1095 7.11668L12.0726 6.84049L12.0327 6.57114L11.9897 6.30864L11.9433 6.05261L11.8942 5.80418L11.8421 5.56337L11.8154 5.44543L11.7873 5.33016L11.7302 5.10533L11.6697 4.88886L11.607 4.68114L11.5586 4.53125L11.5084 4.38668L11.4399 4.20217C11.109 3.34848 10.7019 2.82576 10.2602 2.77554L10.1556 2.77326V2.77326ZM12.7365 3.30777L12.7418 3.31842C12.9396 3.75402 13.1085 4.24859 13.2497 4.79261L13.3014 4.99918L13.3596 5.25103L13.3874 5.37924L13.414 5.50897L13.465 5.77337L13.4893 5.90766L13.535 6.18043L13.5768 6.45891L13.5959 6.60005L13.6324 6.88652L13.6495 7.03185L13.6807 7.32554L13.7081 7.62456L13.7321 7.92815L13.7431 8.08147L13.7659 8.46951L13.7834 8.86402L13.7948 9.23951H17.1887C16.9072 6.54717 15.148 4.295 12.7365 3.30777V3.30777Z" fill="#114DAD"/>
</svg>
